<svg xmlns="http://www.w3.org/2000/svg" width="64" height="64"><rect x="0.1" y="0.1" width="63.9" height="63.9" fill="#fff"/><!-- path d="M0-.002h64.002V64H0z" style="fill:#fff"/ --><path fill="#007acc" d="M2.17 32v29.83h59.663V2.168H2.169Zm48.08-2.377c1.515.378 2.67 1.051 3.732 2.15.55.587 1.363 1.657 1.43 1.912.018.075-2.576 1.818-4.149 2.794-.056.037-.284-.208-.54-.587-.768-1.119-1.572-1.6-2.804-1.686-1.808-.123-2.983.824-2.964 2.406 0 .464.065.738.255 1.118.399.824 1.138 1.316 3.457 2.321 4.272 1.837 6.099 3.049 7.234 4.773 1.268 1.922 1.553 4.991.692 7.273-.947 2.482-3.296 4.167-6.6 4.726-1.023.18-3.448.152-4.546-.046-2.396-.426-4.668-1.61-6.07-3.163-.55-.606-1.62-2.188-1.553-2.303.028-.037.275-.189.55-.35l2.215-1.277 1.716-.995.36.531c.501.768 1.6 1.818 2.263 2.169 1.904 1.004 4.518.861 5.805-.294.55-.501.776-1.023.776-1.79 0-.691-.083-.994-.444-1.515-.464-.661-1.412-1.22-4.102-2.386-3.078-1.326-4.404-2.15-5.616-3.457-.7-.757-1.363-1.97-1.638-2.983-.228-.842-.285-2.955-.105-3.807.634-2.983 2.879-5.048 6.118-5.663 1.052-.198 3.496-.123 4.527.133zm-14.006 2.489.018 2.442h-7.765V56.62h-5.493V34.554H15.24v-2.396l.065-2.46c.028-.038 4.754-.057 10.484-.047l10.427.028Z" style="stroke-width:1"/></svg>
