<?xml version="1.0" encoding="UTF-8" standalone="no"?>
<svg
   width="64"
   height="64"
   version="1.1"
   id="svg4"
   sodipodi:docname="ts.svg"
   inkscape:version="1.1.1 (3bf5ae0d25, 2021-09-20)"
   xmlns:inkscape="http://www.inkscape.org/namespaces/inkscape"
   xmlns:sodipodi="http://sodipodi.sourceforge.net/DTD/sodipodi-0.dtd"
   xmlns="http://www.w3.org/2000/svg"
   xmlns:svg="http://www.w3.org/2000/svg">
  <defs
     id="defs8" />
  <sodipodi:namedview
     id="namedview6"
     pagecolor="#ffffff"
     bordercolor="#666666"
     borderopacity="1.0"
     inkscape:pageshadow="2"
     inkscape:pageopacity="0.0"
     inkscape:pagecheckerboard="0"
     showgrid="false"
     inkscape:zoom="13.640625"
     inkscape:cx="32"
     inkscape:cy="32"
     inkscape:window-width="3072"
     inkscape:window-height="1691"
     inkscape:window-x="0"
     inkscape:window-y="0"
     inkscape:window-maximized="1"
     inkscape:current-layer="svg4" />
  <rect
     style="fill:#ffffff;fill-rule:evenodd"
     id="rect32"
     width="64.001999"
     height="64.001999"
     x="0"
     y="-0.0020000001" />
  <path
     d="M 2.169244,31.999932 V 61.830183 H 61.832756 V 2.1678167 H 2.169244 Z m 48.080763,-2.377098 c 1.514846,0.378471 2.67079,1.051516 3.731649,2.149643 0.550006,0.587283 1.363828,1.657443 1.430015,1.912865 0.01864,0.07458 -2.575705,1.81778 -4.148349,2.793788 -0.05593,0.03729 -0.284325,-0.207878 -0.540684,-0.587282 -0.767211,-1.118635 -1.571711,-1.60058 -2.803165,-1.68541 -1.808493,-0.123049 -2.983082,0.824061 -2.964437,2.405064 0,0.464233 0.06525,0.7383 0.255426,1.118635 0.398054,0.82406 1.1373,1.31626 3.456646,2.321167 4.271402,1.836425 6.098539,3.048278 7.233976,4.77284 1.267809,1.922186 1.553066,4.990973 0.691702,7.272988 -0.947129,2.481504 -3.295374,4.166912 -6.60007,4.72623 -1.022638,0.179914 -3.447325,0.151948 -4.545472,-0.04661 -2.395788,-0.426013 -4.668524,-1.609901 -6.070572,-3.162938 -0.550007,-0.605928 -1.619255,-2.187863 -1.553068,-2.302523 0.02796,-0.03729 0.275002,-0.189235 0.550006,-0.350505 l 2.21587,-1.277108 1.715273,-0.994652 0.359835,0.531351 c 0.50153,0.767197 1.600609,1.817781 2.263413,2.168286 1.903579,1.003974 4.517506,0.861348 5.804892,-0.293642 0.550006,-0.50152 0.776533,-1.022617 0.776533,-1.789815 0,-0.691689 -0.08389,-0.994652 -0.444665,-1.514817 -0.464243,-0.661858 -1.411371,-1.221175 -4.101739,-2.38642 -3.078168,-1.325582 -4.403774,-2.149642 -5.615652,-3.45658 -0.701025,-0.757875 -1.363828,-1.969729 -1.638831,-2.983025 -0.22746,-0.842705 -0.284325,-2.95506 -0.104407,-3.807086 0.633904,-2.983025 2.878674,-5.047838 6.118115,-5.663087 1.051537,-0.198558 3.4958,-0.12305 4.526827,0.132372 z m -14.006505,2.488961 0.01865,2.442352 H 28.49681 v 22.065064 h -5.4926 V 34.554147 h -7.765336 v -2.395742 l 0.06525,-2.460995 c 0.02797,-0.03728 4.754288,-0.05593 10.483671,-0.04661 L 36.2146,29.67877 Z"
     fill="#007acc"
     id="path2"
     style="stroke-width:0.932205" />
</svg>
